<svg width="476" height="391" viewBox="0 0 476 391" fill="none" xmlns="http://www.w3.org/2000/svg">
<path fill-rule="evenodd" clip-rule="evenodd" d="M287.147 7.119C261.967 7.119 241.527 26.439 241.527 50.244C241.527 74.049 261.967 93.369 287.147 93.369C312.337 93.369 332.777 74.049 332.777 50.244C332.777 26.439 312.337 7.119 287.147 7.119Z" fill="#7F7F7F" stroke="black" stroke-width="5" stroke-linejoin="round"/>
<path fill-rule="evenodd" clip-rule="evenodd" d="M323.207 48.125C323.207 71.929 302.767 91.249 277.587 91.249C252.397 91.249 231.957 71.929 231.957 48.125C231.957 24.32 252.397 5 277.587 5C302.767 5 323.207 24.32 323.207 48.125Z" fill="#7F7F7F" stroke="black" stroke-width="10" stroke-linejoin="round"/>
<path d="M295.507 79.049H291.767L291.747 69.519C289.827 69.419 287.967 69.119 286.167 68.639C284.367 68.149 282.617 67.479 280.907 66.609V58.319C282.677 59.564 284.457 60.524 286.257 61.199C288.067 61.849 289.907 62.219 291.767 62.309V52.465L291.007 52.275C287.337 51.389 284.717 49.996 283.167 48.097C281.627 46.198 280.857 43.466 280.857 39.901C280.857 36.124 281.797 33.181 283.677 31.071C285.567 28.94 288.257 27.78 291.747 27.59L291.767 20.279H295.507V27.463C297.037 27.632 298.577 27.896 300.117 28.254C301.657 28.613 303.197 29.077 304.747 29.647V37.685C303.217 36.799 301.677 36.113 300.137 35.628C298.607 35.122 297.057 34.816 295.507 34.71V43.793L296.247 43.983C300.147 44.827 302.887 46.241 304.447 48.224C306.037 50.186 306.827 53.098 306.827 56.959C306.827 60.839 305.887 63.829 304.017 65.919C302.137 67.979 299.297 69.169 295.507 69.459V79.049V79.049ZM291.767 43.065V34.805C290.677 34.89 289.797 35.301 289.137 36.04C288.497 36.757 288.167 37.675 288.167 38.793C288.167 40.038 288.467 41.019 289.067 41.736C289.667 42.432 290.567 42.875 291.767 43.065V43.065ZM295.507 53.382V62.179C296.837 62.159 297.837 61.799 298.507 61.109C299.177 60.408 299.517 59.364 299.517 57.971C299.517 56.537 299.207 55.471 298.597 54.775C297.977 54.058 296.947 53.593 295.507 53.382ZM249.847 61.109H257.687V30.565L249.637 32.843V24.552L257.637 22.273H266.077V61.109H273.917V69.519H249.847V61.109V61.109Z" stroke="black" stroke-width="5" stroke-linejoin="round"/>
<path fill-rule="evenodd" clip-rule="evenodd" d="M5 202.199C10.288 191.599 48.626 179.479 68.456 156.759C90.927 134.039 113.407 131.009 113.407 131.009C113.407 131.009 112.087 114.349 96.217 102.229C63.168 77.989 125.307 87.079 139.847 108.289C149.097 91.619 338.607 44.167 420.577 178.979C425.867 130.509 445.267 183.759 454.527 179.209C461.817 179.919 456.037 175.639 470.607 168.089C466.637 183.239 461.177 195.829 452.327 190.599C429.337 158.679 431.397 174.199 425.397 200.679C432.007 227.949 412.177 290.049 385.737 373.359L364.587 374.879C351.367 355.189 348.727 330.949 340.787 305.199C279.977 335.499 199.337 327.919 157.027 309.749C154.387 332.469 135.877 368.819 126.627 385.479H106.797C92.257 368.819 80.357 294.599 80.357 279.449C67.134 279.449 7.644 270.359 5 247.639C20.423 243.599 38.491 247.139 51.27 235.519C36.287 227.449 21.304 234.509 6.322 234.009L5 202.199V202.199Z" fill="#F1CCD3" stroke="black" stroke-width="10" stroke-linejoin="round"/>
<path fill-rule="evenodd" clip-rule="evenodd" d="M99.717 164.509C99.147 149.999 65.404 160.389 65.404 178.849C65.404 195.329 97.987 197.319 99.717 164.509Z" fill="white" stroke="black" stroke-width="10" stroke-linejoin="round"/>
<path fill-rule="evenodd" clip-rule="evenodd" d="M73.46 163.029C66.554 165.659 61.376 185.439 71.158 187.419C80.367 190.719 87.267 162.369 73.46 163.029Z" fill="black" stroke="black" stroke-width="4.2453"/>
<path fill-rule="evenodd" clip-rule="evenodd" d="M216.517 102.229C216.517 102.229 280.637 99.959 305.757 114.349C311.707 106.769 314.347 101.469 317.657 99.959C302.447 88.589 240.977 87.079 224.457 85.569C221.147 90.869 216.517 102.229 216.517 102.229V102.229Z" fill="black" stroke="black" stroke-width="1.1321"/>
<path fill-rule="evenodd" clip-rule="evenodd" d="M91.587 90.109C91.587 90.109 120.017 100.709 129.927 114.349C150.417 109.039 107.457 91.619 91.587 90.109Z" fill="black" fill-opacity="0.25"/>
<g filter="url(#filter0_f)">
<path fill-rule="evenodd" clip-rule="evenodd" d="M135.217 165.089C93.577 149.939 42.016 236.279 101.507 265.819C182.807 305.959 225.117 199.929 135.217 165.089Z" fill="url(#paint0_radial)"/>
</g>
<path fill-rule="evenodd" clip-rule="evenodd" d="M73.522 166.979C69.494 165.009 60.287 176.869 70.069 186.099C72.946 187.419 79.277 167.639 73.522 166.979Z" fill="white" fill-opacity="0.5"/>
<g filter="url(#filter1_f)">
<path fill-rule="evenodd" clip-rule="evenodd" d="M14.098 203.909C129.758 117.529 219.098 35.109 383.028 141.769C196.018 32.319 13.528 257.969 14.098 203.909Z" fill="white" fill-opacity="0.5"/>
</g>
<path d="M249.263 123.978C249.286 128.702 248.725 132.846 247.58 136.413C246.507 139.979 245.25 143.146 243.81 145.914C242.443 148.609 241.074 151.05 239.704 153.237C238.406 155.351 237.544 157.389 237.117 159.354C236.76 160.663 235.964 161.321 234.729 161.327C234.584 161.328 234.475 161.328 234.402 161.329C234.329 161.256 234.22 161.221 234.074 161.221C234.589 162.454 235.359 163.867 236.384 165.461C237.409 166.982 238.434 168.54 239.459 170.133C240.484 171.727 241.363 173.285 242.097 174.808C242.904 176.33 243.31 177.636 243.315 178.726C243.318 179.307 242.921 179.854 242.124 180.367C241.4 180.951 240.748 181.245 240.166 181.248C239.876 181.249 239.657 181.069 239.51 180.706C238.77 178.094 237.413 175.303 235.436 172.333C233.46 169.363 231.409 166.03 229.284 162.334C227.231 158.638 225.394 154.469 223.773 149.826C222.152 145.183 221.327 139.919 221.299 134.033C221.287 131.562 221.386 129.491 221.596 127.818C221.878 126.073 222.637 125.197 223.872 125.191C224.599 125.188 225.108 125.403 225.401 125.838C225.694 126.272 225.842 126.744 225.844 127.253C225.876 133.865 226.522 139.676 227.781 144.684C229.041 149.691 230.44 153.572 231.98 156.326L233.819 153.483C235.694 150.568 237.317 148.016 238.687 145.83C240.057 143.57 241.173 141.385 242.034 139.273C242.896 137.089 243.503 134.87 243.855 132.616C244.28 130.361 244.486 127.744 244.471 124.765C244.467 123.965 244.354 123.094 244.131 122.15C243.982 121.206 243.687 120.372 243.247 119.647C242.88 118.85 242.405 118.198 241.821 117.692C241.237 117.186 240.509 116.936 239.637 116.94C238.475 116.945 236.696 117.281 234.301 117.947C231.979 118.612 229.585 119.495 227.12 120.597C224.654 121.699 222.408 122.946 220.38 124.336C218.351 125.654 217.123 127.004 216.693 128.387C216.621 128.533 216.513 128.715 216.369 128.934C216.225 129.152 216.08 129.262 215.935 129.263C215.426 129.265 214.879 128.868 214.294 128.072C213.709 127.275 213.415 126.586 213.412 126.005C213.405 124.697 213.981 123.422 215.137 122.181C216.294 120.941 217.742 119.807 219.481 118.781C221.293 117.755 223.287 116.837 225.463 116.027C227.638 115.145 229.742 114.444 231.775 113.926C233.806 113.335 235.621 112.89 237.218 112.591C238.888 112.22 240.086 112.033 240.812 112.029C241.975 112.023 243.067 112.345 244.087 112.994C245.18 113.643 246.093 114.511 246.825 115.597C247.557 116.683 248.144 117.952 248.587 119.404C249.03 120.855 249.256 122.38 249.263 123.978ZM264.797 125.429C264.798 125.575 264.545 125.866 264.038 126.305C263.532 126.743 262.916 127.219 262.192 127.731C261.54 128.17 260.852 128.573 260.127 128.94C259.402 129.307 258.822 129.491 258.386 129.493C258.095 129.495 257.695 129.497 257.187 129.499C256.75 129.428 256.277 129.285 255.768 129.07C255.331 128.854 254.93 128.565 254.564 128.204C254.199 127.769 254.015 127.225 254.012 126.571C254.007 125.554 254.365 124.608 255.088 123.732C255.81 122.784 256.752 122.307 257.915 122.301C258.133 122.3 258.606 122.407 259.333 122.622C260.134 122.763 260.934 122.977 261.735 123.264C262.535 123.551 263.227 123.874 263.81 124.235C264.466 124.595 264.795 124.993 264.797 125.429ZM268.591 166.177C268.594 166.686 268.196 167.124 267.399 167.491C266.674 167.858 266.13 168.042 265.766 168.044C265.04 168.047 264.383 167.578 263.798 166.636C263.212 165.695 262.698 164.607 262.256 163.374C261.814 162.141 261.445 160.98 261.149 159.891C260.853 158.73 260.631 157.932 260.483 157.496C260.262 156.771 259.967 155.9 259.599 154.885C259.23 153.869 258.862 152.89 258.494 151.947C258.199 151.004 257.941 150.169 257.719 149.444C257.498 148.718 257.387 148.319 257.386 148.246C257.382 147.229 257.559 146.283 257.918 145.41C258.35 144.536 258.856 144.097 259.437 144.094C260.091 144.091 260.784 144.596 261.516 145.61C262.247 146.624 262.944 147.929 263.606 149.524C264.34 151.047 265.002 152.751 265.592 154.638C266.183 156.451 266.7 158.193 267.144 159.862C267.588 161.459 267.921 162.874 268.145 164.108C268.442 165.27 268.59 165.959 268.591 166.177ZM308.168 161.953C308.17 162.389 308.027 162.825 307.739 163.263C307.45 163.7 307.089 164.102 306.654 164.467C306.293 164.832 305.858 165.161 305.351 165.454C304.916 165.674 304.517 165.785 304.154 165.787C302.918 165.793 301.319 165.547 299.354 165.047C297.462 164.475 295.932 163.611 294.763 162.454C293.522 161.224 292.425 159.776 291.472 158.109C290.519 156.37 289.453 153.832 288.275 150.495C287.491 153.696 286.561 156.862 285.486 159.991C284.484 163.121 282.827 165.999 280.514 168.627C280.37 168.773 280.152 168.846 279.861 168.848C279.353 168.85 278.806 168.599 278.223 168.093C277.639 167.587 277.346 167.08 277.343 166.571C277.341 166.062 277.262 164.9 277.108 163.084C277.027 161.195 276.907 159.125 276.751 156.873C276.595 154.548 276.438 152.223 276.281 149.899C276.197 147.501 276.151 145.539 276.144 144.013C276.14 143.287 276.172 142.342 276.239 141.179C276.306 139.943 276.519 138.889 276.878 138.015C276.95 137.869 277.203 137.577 277.637 137.139C278.143 136.701 278.687 136.48 279.269 136.477C279.777 136.475 280.069 136.8 280.145 137.454C280.221 138.108 280.261 138.834 280.265 139.633L280.348 156.855C280.35 157.219 280.389 157.727 280.465 158.381C280.613 159.034 280.797 159.505 281.016 159.795C281.807 158.047 282.524 156.009 283.167 153.681C283.882 151.279 284.561 149.023 285.205 146.913C285.849 144.73 286.494 142.91 287.141 141.453C287.787 139.924 288.438 139.158 289.092 139.155C289.818 139.151 290.4 139.294 290.838 139.582C291.275 139.871 291.641 140.45 291.936 141.321C292.31 143.427 292.61 145.314 292.836 146.985C293.061 148.582 293.323 150.034 293.62 151.341C293.989 152.647 294.468 153.88 295.055 155.04C295.714 156.127 296.591 157.14 297.685 158.079C298.707 159.019 299.837 159.704 301.074 160.134C302.384 160.564 303.512 160.776 304.456 160.772C304.892 160.77 305.364 160.695 305.872 160.547C306.38 160.326 306.743 160.216 306.961 160.215C307.251 160.213 307.507 160.466 307.727 160.974C308.021 161.481 308.167 161.807 308.168 161.953ZM352.491 163.482C352.494 164.064 352.424 164.5 352.28 164.791C352.135 165.01 351.773 165.193 351.192 165.342C350.539 165.563 349.705 165.821 348.689 166.117C347.746 166.339 346.693 166.599 345.532 166.895C344.37 167.119 343.172 167.342 341.938 167.566C340.776 167.717 339.686 167.795 338.669 167.8C337.434 167.806 336.053 167.74 334.526 167.602C333.072 167.464 331.654 167.253 330.272 166.969C328.89 166.612 327.616 166.255 326.452 165.897C325.36 165.467 324.558 164.962 324.046 164.383C324.417 165.907 324.752 167.432 325.05 168.956C325.348 170.481 325.573 172.006 325.726 173.531C325.728 173.894 325.62 174.222 325.404 174.513C325.259 174.732 324.787 174.843 323.988 174.847C323.625 174.849 323.261 174.778 322.897 174.635C322.605 174.418 322.349 174.02 322.128 173.439C321.467 171.989 320.916 170.647 320.474 169.414C320.031 168.108 319.625 166.802 319.256 165.496C318.959 164.19 318.625 162.81 318.255 161.359C317.884 159.907 317.441 158.311 316.924 156.569C316.111 153.739 315.26 150.728 314.373 147.535C313.485 144.269 312.671 141.184 311.93 138.281C311.189 135.305 310.595 132.692 310.148 130.442C309.701 128.119 309.475 126.485 309.47 125.54C309.468 125.104 309.465 124.523 309.462 123.796C309.531 123.069 309.637 122.378 309.779 121.723C309.993 120.996 310.245 120.413 310.533 119.976C310.894 119.465 311.365 119.209 311.947 119.206C312.31 119.204 312.676 119.784 313.045 120.945C313.486 122.033 313.856 123.266 314.153 124.645C314.523 125.952 314.82 127.222 315.043 128.456C315.34 129.617 315.488 130.234 315.488 130.307C315.787 131.904 316.122 133.683 316.495 135.643C316.94 137.53 317.386 139.454 317.831 141.414C318.277 143.374 318.758 145.261 319.276 147.075C319.793 148.816 320.345 150.303 320.932 151.536C321.001 150.809 321.251 149.754 321.68 148.371C322.109 146.988 322.683 145.496 323.402 143.894C324.121 142.292 324.913 140.653 325.777 138.977C326.713 137.229 327.65 135.662 328.588 134.277C329.598 132.891 330.574 131.76 331.514 130.883C332.528 130.006 333.47 129.566 334.342 129.562C335.723 129.555 336.668 129.732 337.179 130.093C337.762 130.453 338.055 130.888 338.057 131.397C338.059 131.833 337.446 132.708 336.217 134.022C334.987 135.263 333.615 136.941 332.099 139.056C330.583 141.098 329.214 143.539 327.992 146.379C326.77 149.146 326.168 152.237 326.184 155.652C326.19 156.888 326.522 157.976 327.181 158.918C327.912 159.786 328.824 160.508 329.917 161.084C331.082 161.66 332.356 162.126 333.738 162.483C335.193 162.767 336.611 162.905 337.991 162.898C339.227 162.892 340.571 162.85 342.024 162.77C343.477 162.69 344.821 162.611 346.056 162.532C347.363 162.381 348.453 162.266 349.324 162.19C350.268 162.112 350.85 162.073 351.068 162.072C351.431 162.07 351.758 162.178 352.05 162.394C352.342 162.611 352.489 162.974 352.491 163.482ZM249.791 232.977C249.814 237.7 249.252 241.845 248.107 245.411C247.034 248.977 245.778 252.144 244.338 254.913C242.97 257.608 241.601 260.049 240.231 262.236C238.934 264.349 238.071 266.388 237.645 268.352C237.288 269.662 236.492 270.32 235.256 270.326C235.111 270.327 235.002 270.327 234.929 270.327C234.856 270.255 234.747 270.219 234.602 270.22C235.117 271.453 235.886 272.866 236.911 274.46C237.936 275.981 238.961 277.538 239.986 279.132C241.011 280.726 241.891 282.284 242.625 283.806C243.431 285.328 243.837 286.634 243.843 287.724C243.846 288.306 243.449 288.853 242.652 289.365C241.928 289.95 241.275 290.244 240.694 290.247C240.403 290.248 240.184 290.068 240.037 289.705C239.298 287.092 237.94 284.301 235.964 281.332C233.987 278.362 231.937 275.029 229.811 271.333C227.759 267.637 225.922 263.468 224.301 258.825C222.68 254.182 221.855 248.917 221.826 243.031C221.814 240.561 221.913 238.489 222.123 236.817C222.405 235.072 223.164 234.196 224.399 234.19C225.126 234.186 225.636 234.402 225.929 234.837C226.221 235.271 226.369 235.743 226.371 236.251C226.403 242.864 227.049 248.674 228.309 253.682C229.568 258.69 230.968 262.571 232.507 265.325L234.346 262.482C236.222 259.566 237.844 257.015 239.215 254.828C240.584 252.569 241.7 250.384 242.562 248.272C243.423 246.088 244.03 243.869 244.383 241.614C244.808 239.36 245.013 236.743 244.999 233.763C244.995 232.964 244.882 232.092 244.659 231.149C244.509 230.205 244.214 229.371 243.775 228.646C243.408 227.849 242.932 227.197 242.348 226.691C241.765 226.185 241.037 225.934 240.165 225.939C239.002 225.944 237.223 226.28 234.829 226.945C232.506 227.611 230.113 228.494 227.647 229.596C225.182 230.698 222.935 231.944 220.907 233.335C218.879 234.653 217.65 236.003 217.221 237.386C217.149 237.531 217.041 237.714 216.896 237.932C216.752 238.151 216.607 238.261 216.462 238.261C215.953 238.264 215.406 237.867 214.821 237.07C214.236 236.274 213.942 235.585 213.939 235.004C213.933 233.696 214.508 232.421 215.665 231.18C216.821 229.939 218.269 228.806 220.008 227.78C221.82 226.754 223.814 225.836 225.99 225.026C228.166 224.144 230.27 223.443 232.302 222.925C234.334 222.333 236.148 221.889 237.746 221.59C239.415 221.219 240.613 221.031 241.34 221.028C242.503 221.022 243.594 221.344 244.615 221.993C245.708 222.642 246.62 223.509 247.352 224.596C248.084 225.682 248.672 226.951 249.115 228.402C249.558 229.853 249.783 231.378 249.791 232.977ZM265.325 234.428C265.325 234.573 265.072 234.865 264.566 235.304C264.059 235.742 263.444 236.217 262.72 236.73C262.068 237.169 261.379 237.572 260.655 237.939C259.93 238.305 259.349 238.49 258.913 238.492C258.623 238.493 258.223 238.495 257.714 238.498C257.278 238.427 256.805 238.284 256.295 238.069C255.858 237.853 255.457 237.564 255.092 237.202C254.726 236.768 254.542 236.224 254.539 235.57C254.534 234.553 254.893 233.606 255.615 232.731C256.337 231.783 257.28 231.306 258.442 231.3C258.66 231.299 259.133 231.406 259.861 231.62C260.661 231.762 261.461 231.976 262.262 232.263C263.063 232.549 263.755 232.873 264.338 233.234C264.994 233.594 265.323 233.992 265.325 234.428ZM269.119 275.176C269.121 275.685 268.724 276.123 267.926 276.49C267.201 276.857 266.657 277.041 266.294 277.043C265.567 277.046 264.911 276.577 264.325 275.635C263.739 274.693 263.225 273.606 262.783 272.373C262.341 271.139 261.972 269.979 261.676 268.89C261.38 267.729 261.158 266.93 261.011 266.495C260.789 265.77 260.494 264.899 260.126 263.883C259.758 262.868 259.39 261.889 259.022 260.946C258.727 260.002 258.468 259.168 258.247 258.442C258.025 257.717 257.914 257.318 257.914 257.245C257.909 256.228 258.086 255.282 258.445 254.408C258.877 253.534 259.384 253.096 259.965 253.093C260.619 253.09 261.312 253.595 262.043 254.609C262.775 255.623 263.471 256.927 264.133 258.523C264.867 260.045 265.53 261.75 266.12 263.636C266.71 265.45 267.227 267.192 267.671 268.861C268.115 270.457 268.449 271.873 268.673 273.107C268.969 274.268 269.118 274.958 269.119 275.176ZM303.046 274.794C303.05 275.593 302.762 276.14 302.182 276.433C301.602 276.727 301.313 277.128 301.316 277.636C301.243 277.564 301.39 277.963 301.758 278.833C302.125 279.703 302.457 280.61 302.752 281.553C303.27 283.513 303.714 285.218 304.085 286.67C304.528 288.121 304.861 289.464 305.085 290.698C305.382 291.932 305.606 293.166 305.757 294.401C305.908 295.636 305.988 297.016 305.995 298.542C306.003 300.068 305.756 301.631 305.255 303.232C304.754 304.834 304.034 306.254 303.095 307.494C302.157 308.734 300.999 309.757 299.622 310.563C298.245 311.369 296.685 311.776 294.941 311.784C292.252 311.797 290.106 311.263 288.502 310.181C286.971 309.098 285.802 307.868 284.996 306.492C284.19 305.115 283.675 303.737 283.45 302.357C283.226 301.05 283.113 300.179 283.111 299.743C283.098 297.054 283.775 294.362 285.143 291.667C286.51 288.971 288.024 286.53 289.685 284.342C291.346 282.154 292.863 280.33 294.237 278.87C295.61 277.41 296.297 276.571 296.296 276.353L295.079 272.761C294.357 273.637 293.708 274.621 293.132 275.714C292.628 276.734 292.051 277.717 291.402 278.665C290.825 279.54 290.102 280.307 289.233 280.965C288.436 281.55 287.42 281.846 286.185 281.852C284.877 281.858 283.567 281.465 282.255 280.672C280.944 279.879 279.775 278.685 278.75 277.091C277.725 275.498 276.88 273.576 276.215 271.327C275.623 269.077 275.32 266.462 275.305 263.483C275.297 261.812 275.541 259.739 276.038 257.266C276.534 254.721 277.322 252.282 278.401 249.952C279.479 247.621 280.814 245.653 282.405 244.046C284.068 242.367 285.99 241.522 288.17 241.511C289.405 241.505 290.533 241.718 291.552 242.149C292.644 242.58 293.192 243.122 293.195 243.776C293.198 244.357 293.091 244.83 292.875 245.195C292.659 245.559 292.37 245.924 292.008 246.289C291.789 246.145 291.534 246.001 291.243 245.857C291.024 245.712 290.697 245.641 290.261 245.643C288.662 245.651 287.213 246.385 285.912 247.844C284.683 249.231 283.638 250.98 282.776 253.092C281.914 255.131 281.234 257.278 280.736 259.533C280.311 261.787 280.103 263.75 280.111 265.422C280.129 269.128 280.76 271.959 282.005 273.915C283.249 275.798 284.562 276.736 285.942 276.73C286.596 276.726 287.284 276.251 288.007 275.303C288.801 274.281 289.522 273.188 290.171 272.022C290.891 270.783 291.503 269.618 292.007 268.525C292.51 267.433 292.798 266.777 292.869 266.559C293.011 265.832 293.08 264.996 293.075 264.051C293.071 263.252 293.031 262.38 292.953 261.436C292.949 260.418 292.944 259.401 292.939 258.384C292.93 256.494 293.067 254.931 293.352 253.694C293.636 252.385 294.36 251.728 295.522 251.722C296.685 251.716 297.523 252.076 298.035 252.8C298.547 253.451 298.805 254.249 298.809 255.194C298.812 255.848 298.78 256.648 298.712 257.593C298.716 258.465 298.72 259.337 298.725 260.209C298.728 261.008 298.696 261.735 298.626 262.389C298.629 262.97 298.631 263.334 298.631 263.479C298.634 263.915 298.673 264.569 298.75 265.441C298.899 266.239 299.012 267.074 299.089 267.946C299.238 268.745 299.351 269.507 299.427 270.233C299.576 270.887 299.687 271.322 299.76 271.54C299.834 271.757 299.945 272.084 300.092 272.519C300.24 272.954 300.387 273.281 300.533 273.498C300.605 273.352 300.75 273.206 300.967 273.06C301.184 272.841 301.365 272.658 301.509 272.512C301.874 272.728 302.203 273.163 302.496 273.815C302.863 274.395 303.046 274.721 303.046 274.794ZM299.407 288.655C299.111 287.493 298.778 286.332 298.409 285.171C298.04 284.01 297.671 282.813 297.302 281.58C296.074 283.112 294.882 284.571 293.726 285.957C292.643 287.416 291.633 288.838 290.695 290.223C289.829 291.608 289.11 293.028 288.535 294.484C288.034 296.013 287.787 297.613 287.796 299.284C287.806 301.537 288.433 303.387 289.675 304.834C290.99 306.281 292.411 307.001 293.937 306.993C295.608 306.985 297.168 306.36 298.615 305.118C300.135 303.875 300.889 302.091 300.878 299.766C300.871 298.24 300.828 296.968 300.751 295.951C300.673 294.934 300.56 294.026 300.41 293.228C300.334 292.501 300.185 291.776 299.964 291.05C299.815 290.397 299.63 289.598 299.407 288.655Z" fill="black"/>
<defs>
<filter id="filter0_f" x="64.1231" y="152.904" width="131.903" height="132.272" filterUnits="userSpaceOnUse" color-interpolation-filters="sRGB">
<feFlood flood-opacity="0" result="BackgroundImageFix"/>
<feBlend mode="normal" in="SourceGraphic" in2="BackgroundImageFix" result="shape"/>
<feGaussianBlur stdDeviation="5.20849" result="effect1_foregroundBlur"/>
</filter>
<filter id="filter1_f" x="8.59025" y="85.7648" width="379.944" height="132.155" filterUnits="userSpaceOnUse" color-interpolation-filters="sRGB">
<feFlood flood-opacity="0" result="BackgroundImageFix"/>
<feBlend mode="normal" in="SourceGraphic" in2="BackgroundImageFix" result="shape"/>
<feGaussianBlur stdDeviation="2.75321" result="effect1_foregroundBlur"/>
</filter>
<radialGradient id="paint0_radial" cx="0" cy="0" r="1" gradientUnits="userSpaceOnUse" gradientTransform="translate(130.642 222.077) scale(52.7284 52.901)">
<stop stop-color="#FF0004" stop-opacity="0.65833"/>
<stop offset="1" stop-color="#E48E17" stop-opacity="0"/>
</radialGradient>
</defs>
</svg>
